<?xml version="1.0" standalone="no"?>
<!DOCTYPE svg PUBLIC "-//W3C//DTD SVG 20010904//EN"
 "http://www.w3.org/TR/2001/REC-SVG-20010904/DTD/svg10.dtd">
<svg version="1.0" xmlns="http://www.w3.org/2000/svg"
 width="200.000000pt" height="200.000000pt" viewBox="0 0 200.000000 200.000000"
 preserveAspectRatio="xMidYMid meet">
<metadata>
Created by potrace 1.16, written by Peter Selinger 2001-2019
</metadata>
<g transform="translate(0.000000,200.000000) scale(0.100000,-0.100000)"
fill="#000000" stroke="none">
<path d="M870 1910 c-140 -20 -320 -92 -424 -172 -263 -201 -404 -521 -368
-835 48 -407 335 -723 732 -805 122 -26 306 -20 420 12 553 158 832 761 590
1277 -67 143 -160 257 -291 354 -178 132 -440 199 -659 169z m460 -736 c143
-91 260 -169 260 -173 0 -6 -428 -121 -465 -125 -5 0 -11 13 -13 30 l-3 31
148 37 c82 21 155 41 162 45 9 6 -7 22 -55 53 -183 117 -255 160 -260 156 -2
-3 -40 -130 -84 -283 -44 -153 -81 -280 -84 -282 -2 -3 -15 1 -28 9 -51 27
-507 323 -504 326 5 4 463 122 476 122 7 0 10 -14 8 -32 l-3 -32 -157 -39
c-87 -22 -158 -42 -158 -46 1 -3 74 -52 163 -108 108 -69 164 -98 168 -90 3 7
41 137 85 289 43 153 80 278 82 278 1 0 119 -75 262 -166z"/>
</g>
</svg>
